<svg width="512" height="512" viewBox="0 0 512 512" fill="none" xmlns="http://www.w3.org/2000/svg">
  <rect width="512" height="512" rx="112" fill="#0F0C29"/>
  <rect width="512" height="512" rx="112" fill="url(#paint0_linear)"/>
  <rect x="86" y="96" width="340" height="320" rx="54" fill="white" fill-opacity="0.12" stroke="white" stroke-opacity="0.24" stroke-width="10"/>
  <path d="M148 188H364" stroke="white" stroke-width="26" stroke-linecap="round"/>
  <path d="M148 256H246" stroke="white" stroke-opacity="0.86" stroke-width="26" stroke-linecap="round"/>
  <path d="M148 324H222" stroke="white" stroke-opacity="0.7" stroke-width="26" stroke-linecap="round"/>
  <path d="M302 318C302 292.595 322.595 272 348 272H370C395.405 272 416 292.595 416 318C416 343.405 395.405 364 370 364H348C322.595 364 302 343.405 302 318Z" fill="url(#paint1_linear)"/>
  <path d="M358 292V344" stroke="white" stroke-width="18" stroke-linecap="round"/>
  <path d="M332 318H384" stroke="white" stroke-width="18" stroke-linecap="round"/>
  <defs>
    <linearGradient id="paint0_linear" x1="0" y1="0" x2="512" y2="512" gradientUnits="userSpaceOnUse">
      <stop stop-color="#667EEA"/>
      <stop offset="1" stop-color="#764BA2"/>
    </linearGradient>
    <linearGradient id="paint1_linear" x1="302" y1="272" x2="416" y2="364" gradientUnits="userSpaceOnUse">
      <stop stop-color="#11998E"/>
      <stop offset="1" stop-color="#38EF7D"/>
    </linearGradient>
  </defs>
</svg>
